<svg xmlns="http://www.w3.org/2000/svg" width="360" height="240" viewBox="0 0 360 240">
<title>日がたつにつれ、瓶の中の硬貨が少しずつ積み重なる図。</title>
<metadata>Original ProjectFluence teaching diagram. CC0-1.0. https://creativecommons.org/publicdomain/zero/1.0/</metadata>
<rect width="360" height="240" rx="20" fill="#f5f8f6"/>
<text x="70" y="35" text-anchor="middle" font-size="17" fill="#40565b" font-family="system-ui,-apple-system,sans-serif">１日目</text><text x="180" y="35" text-anchor="middle" font-size="17" fill="#40565b" font-family="system-ui,-apple-system,sans-serif">２日目</text><text x="290" y="35" text-anchor="middle" font-size="17" fill="#40565b" font-family="system-ui,-apple-system,sans-serif">３日目</text><rect x="29" y="57" width="82" height="145" rx="5" fill="#fffdf5" stroke="#40565b" stroke-width="2.5"/><rect x="139" y="57" width="82" height="145" rx="5" fill="#fffdf5" stroke="#40565b" stroke-width="2.5"/><rect x="249" y="57" width="82" height="145" rx="5" fill="#fffdf5" stroke="#40565b" stroke-width="2.5"/><circle cx="50" cy="181" r="8" fill="#d9b76c" stroke="#40565b" stroke-width="2.5"/><line x1="46.8" y1="181" x2="53.2" y2="181" stroke="#b28a41" stroke-width="2" stroke-linecap="round"/><circle cx="69" cy="181" r="8" fill="#d9b76c" stroke="#40565b" stroke-width="2.5"/><line x1="65.8" y1="181" x2="72.2" y2="181" stroke="#b28a41" stroke-width="2" stroke-linecap="round"/><circle cx="88" cy="181" r="8" fill="#d9b76c" stroke="#40565b" stroke-width="2.5"/><line x1="84.8" y1="181" x2="91.2" y2="181" stroke="#b28a41" stroke-width="2" stroke-linecap="round"/><circle cx="160" cy="181" r="8" fill="#d9b76c" stroke="#40565b" stroke-width="2.5"/><line x1="156.8" y1="181" x2="163.2" y2="181" stroke="#b28a41" stroke-width="2" stroke-linecap="round"/><circle cx="179" cy="181" r="8" fill="#d9b76c" stroke="#40565b" stroke-width="2.5"/><line x1="175.8" y1="181" x2="182.2" y2="181" stroke="#b28a41" stroke-width="2" stroke-linecap="round"/><circle cx="198" cy="181" r="8" fill="#d9b76c" stroke="#40565b" stroke-width="2.5"/><line x1="194.8" y1="181" x2="201.2" y2="181" stroke="#b28a41" stroke-width="2" stroke-linecap="round"/><circle cx="160" cy="162" r="8" fill="#d9b76c" stroke="#40565b" stroke-width="2.5"/><line x1="156.8" y1="162" x2="163.2" y2="162" stroke="#b28a41" stroke-width="2" stroke-linecap="round"/><circle cx="179" cy="162" r="8" fill="#d9b76c" stroke="#40565b" stroke-width="2.5"/><line x1="175.8" y1="162" x2="182.2" y2="162" stroke="#b28a41" stroke-width="2" stroke-linecap="round"/><circle cx="198" cy="162" r="8" fill="#d9b76c" stroke="#40565b" stroke-width="2.5"/><line x1="194.8" y1="162" x2="201.2" y2="162" stroke="#b28a41" stroke-width="2" stroke-linecap="round"/><circle cx="270" cy="181" r="8" fill="#d9b76c" stroke="#40565b" stroke-width="2.5"/><line x1="266.8" y1="181" x2="273.2" y2="181" stroke="#b28a41" stroke-width="2" stroke-linecap="round"/><circle cx="289" cy="181" r="8" fill="#d9b76c" stroke="#40565b" stroke-width="2.5"/><line x1="285.8" y1="181" x2="292.2" y2="181" stroke="#b28a41" stroke-width="2" stroke-linecap="round"/><circle cx="308" cy="181" r="8" fill="#d9b76c" stroke="#40565b" stroke-width="2.5"/><line x1="304.8" y1="181" x2="311.2" y2="181" stroke="#b28a41" stroke-width="2" stroke-linecap="round"/><circle cx="270" cy="162" r="8" fill="#d9b76c" stroke="#40565b" stroke-width="2.5"/><line x1="266.8" y1="162" x2="273.2" y2="162" stroke="#b28a41" stroke-width="2" stroke-linecap="round"/><circle cx="289" cy="162" r="8" fill="#d9b76c" stroke="#40565b" stroke-width="2.5"/><line x1="285.8" y1="162" x2="292.2" y2="162" stroke="#b28a41" stroke-width="2" stroke-linecap="round"/><circle cx="308" cy="162" r="8" fill="#d9b76c" stroke="#40565b" stroke-width="2.5"/><line x1="304.8" y1="162" x2="311.2" y2="162" stroke="#b28a41" stroke-width="2" stroke-linecap="round"/><circle cx="270" cy="143" r="8" fill="#d9b76c" stroke="#40565b" stroke-width="2.5"/><line x1="266.8" y1="143" x2="273.2" y2="143" stroke="#b28a41" stroke-width="2" stroke-linecap="round"/><circle cx="289" cy="143" r="8" fill="#d9b76c" stroke="#40565b" stroke-width="2.5"/><line x1="285.8" y1="143" x2="292.2" y2="143" stroke="#b28a41" stroke-width="2" stroke-linecap="round"/><circle cx="308" cy="143" r="8" fill="#d9b76c" stroke="#40565b" stroke-width="2.5"/><line x1="304.8" y1="143" x2="311.2" y2="143" stroke="#b28a41" stroke-width="2" stroke-linecap="round"/><text x="180" y="229" text-anchor="middle" font-size="17" fill="#40565b" font-family="system-ui,-apple-system,sans-serif">少しずつ貯まっていく</text>
</svg>
