<svg xmlns="http://www.w3.org/2000/svg" width="360" height="240" viewBox="0 0 360 240">
<title>二枚の紙の上部を、一本のクリップで一緒に留めている。</title>
<metadata>Original ProjectFluence teaching diagram. CC0-1.0. https://creativecommons.org/publicdomain/zero/1.0/</metadata>
<rect width="360" height="240" rx="20" fill="#f5f8f6"/>
<rect x="70" y="78" width="116" height="129" rx="5" fill="#fffdf5" stroke="#40565b" stroke-width="2.5"/><line x1="80" y1="98" x2="176" y2="98" stroke="#b7c6c6" stroke-width="3" stroke-linecap="round"/><line x1="80" y1="112" x2="176" y2="112" stroke="#b7c6c6" stroke-width="3" stroke-linecap="round"/><line x1="80" y1="126" x2="176" y2="126" stroke="#b7c6c6" stroke-width="3" stroke-linecap="round"/><line x1="80" y1="140" x2="176" y2="140" stroke="#b7c6c6" stroke-width="3" stroke-linecap="round"/><line x1="80" y1="154" x2="176" y2="154" stroke="#b7c6c6" stroke-width="3" stroke-linecap="round"/><line x1="80" y1="168" x2="176" y2="168" stroke="#b7c6c6" stroke-width="3" stroke-linecap="round"/><line x1="80" y1="182" x2="176" y2="182" stroke="#b7c6c6" stroke-width="3" stroke-linecap="round"/><line x1="80" y1="196" x2="176" y2="196" stroke="#b7c6c6" stroke-width="3" stroke-linecap="round"/><rect x="145" y="60" width="110" height="129" rx="5" fill="#fffdf5" stroke="#40565b" stroke-width="2.5"/><line x1="155" y1="80" x2="245" y2="80" stroke="#b7c6c6" stroke-width="3" stroke-linecap="round"/><line x1="155" y1="94" x2="245" y2="94" stroke="#b7c6c6" stroke-width="3" stroke-linecap="round"/><line x1="155" y1="108" x2="245" y2="108" stroke="#b7c6c6" stroke-width="3" stroke-linecap="round"/><line x1="155" y1="122" x2="245" y2="122" stroke="#b7c6c6" stroke-width="3" stroke-linecap="round"/><line x1="155" y1="136" x2="245" y2="136" stroke="#b7c6c6" stroke-width="3" stroke-linecap="round"/><line x1="155" y1="150" x2="245" y2="150" stroke="#b7c6c6" stroke-width="3" stroke-linecap="round"/><line x1="155" y1="164" x2="245" y2="164" stroke="#b7c6c6" stroke-width="3" stroke-linecap="round"/><line x1="155" y1="178" x2="245" y2="178" stroke="#b7c6c6" stroke-width="3" stroke-linecap="round"/><path d="M169 100V57q0-18 13-18t13 18v70q0 17-12 17t-12-17V68" fill="none" stroke="#77aebc" stroke-width="5" stroke-linejoin="round" stroke-linecap="round"/><text x="180" y="231" text-anchor="middle" font-size="16" fill="#40565b" font-family="system-ui,-apple-system,sans-serif">クリップで二枚を留める</text>
</svg>
