<svg xmlns="http://www.w3.org/2000/svg" width="360" height="240" viewBox="0 0 360 240">
<title>四人までの表示と四人の利用者。五人目には入れない印がある。</title>
<metadata>Original ProjectFluence teaching diagram. CC0-1.0. https://creativecommons.org/publicdomain/zero/1.0/</metadata>
<rect width="360" height="240" rx="20" fill="#f5f8f6"/>
<text x="180" y="38" text-anchor="middle" font-size="22" fill="#40565b" font-family="system-ui,-apple-system,sans-serif">定員 ４人</text><circle cx="56" cy="91" r="9" fill="#89b28c" stroke="#40565b" stroke-width="2.5"/><path d="M42 128v-16q0-9 14-9t14 9v16" fill="#89b28c" stroke="#40565b" stroke-width="3" stroke-linejoin="round" stroke-linecap="round"/><line x1="48" y1="128" x2="48" y2="147" stroke="#40565b" stroke-width="3" stroke-linecap="round"/><line x1="64" y1="128" x2="64" y2="147" stroke="#40565b" stroke-width="3" stroke-linecap="round"/><circle cx="121" cy="91" r="9" fill="#89b28c" stroke="#40565b" stroke-width="2.5"/><path d="M107 128v-16q0-9 14-9t14 9v16" fill="#89b28c" stroke="#40565b" stroke-width="3" stroke-linejoin="round" stroke-linecap="round"/><line x1="113" y1="128" x2="113" y2="147" stroke="#40565b" stroke-width="3" stroke-linecap="round"/><line x1="129" y1="128" x2="129" y2="147" stroke="#40565b" stroke-width="3" stroke-linecap="round"/><circle cx="186" cy="91" r="9" fill="#89b28c" stroke="#40565b" stroke-width="2.5"/><path d="M172 128v-16q0-9 14-9t14 9v16" fill="#89b28c" stroke="#40565b" stroke-width="3" stroke-linejoin="round" stroke-linecap="round"/><line x1="178" y1="128" x2="178" y2="147" stroke="#40565b" stroke-width="3" stroke-linecap="round"/><line x1="194" y1="128" x2="194" y2="147" stroke="#40565b" stroke-width="3" stroke-linecap="round"/><circle cx="251" cy="91" r="9" fill="#89b28c" stroke="#40565b" stroke-width="2.5"/><path d="M237 128v-16q0-9 14-9t14 9v16" fill="#89b28c" stroke="#40565b" stroke-width="3" stroke-linejoin="round" stroke-linecap="round"/><line x1="243" y1="128" x2="243" y2="147" stroke="#40565b" stroke-width="3" stroke-linecap="round"/><line x1="259" y1="128" x2="259" y2="147" stroke="#40565b" stroke-width="3" stroke-linecap="round"/><circle cx="316" cy="91" r="9" fill="#b7c6c6" stroke="#40565b" stroke-width="2.5"/><path d="M302 128v-16q0-9 14-9t14 9v16" fill="#b7c6c6" stroke="#40565b" stroke-width="3" stroke-linejoin="round" stroke-linecap="round"/><line x1="308" y1="128" x2="308" y2="147" stroke="#40565b" stroke-width="3" stroke-linecap="round"/><line x1="324" y1="128" x2="324" y2="147" stroke="#40565b" stroke-width="3" stroke-linecap="round"/><line x1="309" y1="166" x2="325" y2="182" stroke="#d9887b" stroke-width="4" stroke-linecap="round"/><line x1="325" y1="166" x2="309" y2="182" stroke="#d9887b" stroke-width="4" stroke-linecap="round"/>
</svg>
