<svg xmlns="http://www.w3.org/2000/svg" width="360" height="240" viewBox="0 0 360 240">
<title>複数の荷物が配送用トラックに積まれて、送り出される図。</title>
<metadata>Original ProjectFluence teaching diagram. CC0-1.0. https://creativecommons.org/publicdomain/zero/1.0/</metadata>
<rect width="360" height="240" rx="20" fill="#f5f8f6"/>
<rect x="47" y="65" width="50" height="43" rx="2" fill="#d9b76c" stroke="#40565b" stroke-width="2.5"/><line x1="72.0" y1="65" x2="72.0" y2="108" stroke="#ad8954" stroke-width="3" stroke-linecap="round"/><line x1="47" y1="77" x2="97" y2="77" stroke="#ad8954" stroke-width="2" stroke-linecap="round"/><rect x="105" y="65" width="50" height="43" rx="2" fill="#d9b76c" stroke="#40565b" stroke-width="2.5"/><line x1="130.0" y1="65" x2="130.0" y2="108" stroke="#ad8954" stroke-width="3" stroke-linecap="round"/><line x1="105" y1="77" x2="155" y2="77" stroke="#ad8954" stroke-width="2" stroke-linecap="round"/><rect x="76" y="19" width="50" height="43" rx="2" fill="#d9b76c" stroke="#40565b" stroke-width="2.5"/><line x1="101.0" y1="19" x2="101.0" y2="62" stroke="#ad8954" stroke-width="3" stroke-linecap="round"/><line x1="76" y1="31" x2="126" y2="31" stroke="#ad8954" stroke-width="2" stroke-linecap="round"/><rect x="33" y="117" width="155" height="59" rx="5" fill="#77aebc" stroke="#40565b" stroke-width="2.5"/><path d="M188 119h62l40 37v20H188Z" fill="#dcecef" stroke="#40565b" stroke-width="3" stroke-linejoin="round" stroke-linecap="round"/><circle cx="73" cy="183" r="18" fill="#40565b" stroke="#40565b" stroke-width="2.5"/><circle cx="249" cy="183" r="18" fill="#40565b" stroke="#40565b" stroke-width="2.5"/><line x1="91" y1="219" x2="274" y2="219" stroke="#89b28c" stroke-width="5" stroke-linecap="round"/><polygon points="274,219 264.0,214.0 264.0,224.0" fill="#89b28c"/>
</svg>
