<svg xmlns="http://www.w3.org/2000/svg" width="320" height="240" viewBox="0 0 320 240" role="img"><title>ふたを開けた冷凍庫と、氷や冷凍品を保つ低い温度の表示。</title><rect x="0" y="0" width="320" height="240" rx="22" fill="#eef5f3"/><path d="M54,94 L112,44 L276,65 L234,104Z" fill="white" stroke="#35535c" stroke-width="3" stroke-linejoin="round" stroke-linecap="round"/><path d="M54,94 L234,104 L271,170 L85,176Z" fill="#d0e3e7" stroke="#35535c" stroke-width="3" stroke-linejoin="round" stroke-linecap="round"/><path d="M54,96 L234,106 L234,211 L54,198Z" fill="white" stroke="#35535c" stroke-width="3" stroke-linejoin="round" stroke-linecap="round"/><path d="M234,106 L272,168 L272,221 L234,211Z" fill="#b5ced3" stroke="#35535c" stroke-width="3" stroke-linejoin="round" stroke-linecap="round"/><line x1="96" y1="106" x2="215" y2="115" stroke="#6fa7a3" stroke-width="3" stroke-linecap="round"/><rect x="105" y="135" width="78" height="40" rx="6" fill="#6fa7a3" stroke="#35535c" stroke-width="3"/><text x="145" y="160" text-anchor="middle" font-family="Arial, Hiragino Sans, sans-serif" font-size="17" font-weight="500" fill="white">−18°C</text><path d="M91,112 l16,-8 l16,8 l-16,9Z" fill="#dcf0f3" stroke="#35535c" stroke-width="3" stroke-linejoin="round" stroke-linecap="round"/><path d="M135,116 l16,-8 l16,8 l-16,9Z" fill="#dcf0f3" stroke="#35535c" stroke-width="3" stroke-linejoin="round" stroke-linecap="round"/><path d="M183,122 l16,-8 l16,8 l-16,9Z" fill="#dcf0f3" stroke="#35535c" stroke-width="3" stroke-linejoin="round" stroke-linecap="round"/></svg>
